<svg width="21" height="22" viewBox="0 0 21 22" fill="none" xmlns="http://www.w3.org/2000/svg">
<path d="M19.25 18H1.75V16.25H2.625V10.1521C2.625 5.78763 6.15125 2.25 10.5 2.25C14.8488 2.25 18.375 5.78763 18.375 10.1521V16.25H19.25V18ZM4.375 16.25H16.625V10.1521C16.625 6.7545 13.8828 4 10.5 4C7.11725 4 4.375 6.7545 4.375 10.1521V16.25ZM8.3125 18.875H12.6875C12.6875 19.4552 12.457 20.0116 12.0468 20.4218C11.6366 20.832 11.0802 21.0625 10.5 21.0625C9.91984 21.0625 9.36344 20.832 8.95321 20.4218C8.54297 20.0116 8.3125 19.4552 8.3125 18.875Z" fill="#0020C0"/>
</svg>
