<svg width="93" height="93" viewBox="0 0 93 93" fill="none" xmlns="http://www.w3.org/2000/svg">
<rect x="1.21516" y="0.5" width="91" height="92" rx="45.5" stroke="#252525"/>
<path d="M30.2152 46.5C30.2152 42.9561 33.088 40.0833 36.6318 40.0833C38.8382 40.0833 40.3344 40.8786 41.5803 42.1245C42.9119 43.4561 43.9378 45.2757 45.1125 47.3902L45.1742 47.5013C46.2761 49.4852 47.5275 51.7383 49.2573 53.4683C51.1053 55.3161 53.5049 56.5833 56.7985 56.5833C62.3674 56.5833 66.8818 52.0689 66.8818 46.5C66.8818 40.9311 62.3674 36.4166 56.7985 36.4166C53.7541 36.4166 51.025 37.7658 49.176 39.8988C49.9944 41.0991 50.6704 42.2939 51.2325 43.3052C52.34 41.3798 54.4177 40.0833 56.7985 40.0833C60.3423 40.0833 63.2152 42.9561 63.2152 46.5C63.2152 50.0438 60.3423 52.9166 56.7985 52.9166C54.5921 52.9166 53.0959 52.1213 51.8501 50.8754C50.5184 49.5438 49.4925 47.7243 48.3179 45.6097L48.2561 45.4986C47.1542 43.5147 45.9028 41.2615 44.1731 39.5317C42.3251 37.6838 39.9254 36.4166 36.6318 36.4166C31.063 36.4166 26.5485 40.9311 26.5485 46.5C26.5485 52.0689 31.063 56.5833 36.6318 56.5833C39.6762 56.5833 42.4054 55.2341 44.2543 53.1011C43.4359 51.9008 42.76 50.706 42.1979 49.6947C41.0904 51.6201 39.0125 52.9166 36.6318 52.9166C33.088 52.9166 30.2152 50.0438 30.2152 46.5Z" fill="#0020C0"/>
</svg>
