<svg width="94" height="93" viewBox="0 0 94 93" fill="none" xmlns="http://www.w3.org/2000/svg">
<rect x="1.21516" y="0.5" width="92" height="92" rx="46" stroke="#252525"/>
<path d="M35.1355 62.6983L45.1225 52.7113C46.2624 53.0158 47.529 52.7207 48.4231 51.8266C49.7575 50.4922 49.7575 48.329 48.4231 46.9947C47.0889 45.6604 44.9257 45.6604 43.5913 46.9947C42.6971 47.8889 42.4022 49.1554 42.7065 50.2954L32.7195 60.2823L30.9076 58.4705C35.7395 52.8331 37.5514 46.5921 39.9674 36.1229L50.8392 34.9149L60.5031 44.5788L59.295 55.4505C48.826 57.8664 42.5847 59.6784 36.9475 64.5103L35.1355 62.6983ZM55.067 29.479L65.9091 40.3212C66.2428 40.6547 66.2428 41.1956 65.9091 41.5291C65.7812 41.6571 65.616 41.7411 65.4371 41.7691L62.9188 42.1628L53.2551 32.499L53.6175 29.9622C53.6843 29.4952 54.1168 29.1707 54.5839 29.2375C54.7669 29.2636 54.9363 29.3484 55.067 29.479Z" fill="#0020C0"/>
</svg>
