<svg width="93" height="92" viewBox="0 0 93 92" fill="none" xmlns="http://www.w3.org/2000/svg">
<rect x="1.21516" y="0.5" width="91" height="91" rx="45.5" stroke="#252525"/>
<path d="M56.547 53.4648L63.7152 60.633L61.3482 63L54.18 55.8318C51.6026 57.8939 48.3339 59.1275 44.7789 59.1275C36.4637 59.1275 29.7152 52.3789 29.7152 44.0637C29.7152 35.7485 36.4637 29 44.7789 29C53.0941 29 59.8426 35.7485 59.8426 44.0637C59.8426 47.6188 58.6091 50.8874 56.547 53.4648ZM53.189 52.2229C55.2356 50.1137 56.4951 47.2365 56.4951 44.0637C56.4951 37.5905 51.2521 32.3475 44.7789 32.3475C38.3057 32.3475 33.0627 37.5905 33.0627 44.0637C33.0627 50.5369 38.3057 55.78 44.7789 55.78C47.9516 55.78 50.8288 54.5205 52.9381 52.4738L53.189 52.2229ZM46.7504 37.6637C45.588 38.1886 44.7789 39.3579 44.7789 40.7162C44.7789 42.5651 46.2776 44.0637 48.1264 44.0637C49.4846 44.0637 50.6541 43.2546 51.179 42.0923C51.3706 42.7155 51.4739 43.3775 51.4739 44.0637C51.4739 47.7612 48.4764 50.7587 44.7789 50.7587C41.0813 50.7587 38.0839 47.7612 38.0839 44.0637C38.0839 40.3662 41.0813 37.3687 44.7789 37.3687C45.4651 37.3687 46.1271 37.472 46.7504 37.6637Z" fill="#0020C0"/>
</svg>
