<svg width="93" height="93" viewBox="0 0 93 93" fill="none" xmlns="http://www.w3.org/2000/svg">
<rect x="1.21516" y="0.5" width="91" height="92" rx="45.5" stroke="#252525"/>
<path d="M48.6041 66.0698V72L42.9374 67.2558L37.2707 72V66.0698H36.3263C32.6751 66.0698 29.7152 62.3527 29.7152 57.7674V28.1163C29.7152 24.1861 32.2522 21 35.3818 21H61.8263C62.8695 21 63.7152 22.062 63.7152 23.3721V63.6977C63.7152 65.0078 62.8695 66.0698 61.8263 66.0698H48.6041ZM48.6041 61.3256H59.9374V54.2093H36.3263C34.7615 54.2093 33.4929 55.8024 33.4929 57.7674C33.4929 59.7325 34.7615 61.3256 36.3263 61.3256H37.2707V56.5814H48.6041V61.3256ZM59.9374 49.4651V25.7442H35.3818V49.5491C35.6903 49.4938 36.0056 49.4651 36.3263 49.4651H59.9374ZM37.2707 28.1163H41.0485V32.8605H37.2707V28.1163ZM37.2707 35.2326H41.0485V39.9767H37.2707V35.2326ZM37.2707 42.3488H41.0485V47.093H37.2707V42.3488Z" fill="#0020C0"/>
</svg>
