<svg width="34" height="34" viewBox="0 0 34 34" fill="none" xmlns="http://www.w3.org/2000/svg">
<path d="M17 34C7.6109 34 0 26.3891 0 17C0 7.6109 7.6109 0 17 0C26.3891 0 34 7.6109 34 17C34 26.3891 26.3891 34 17 34ZM8.5221 27.6352C10.9285 29.5591 13.9191 30.6049 17 30.6C20.349 30.6 23.4141 29.3896 25.7839 27.3836C24.6767 26.2476 23.353 25.3451 21.891 24.7296C20.4289 24.114 18.8583 23.798 17.272 23.8C15.6274 23.7981 14.0004 24.138 12.4941 24.7983C10.9878 25.4585 9.63523 26.4246 8.5221 27.6352ZM6.1472 25.194C7.57597 23.6777 9.30014 22.4701 11.2134 21.6456C13.1267 20.8211 15.1886 20.3972 17.272 20.4C19.2808 20.3974 21.2703 20.7916 23.1264 21.56C24.9824 22.3285 26.6683 23.456 28.0874 24.8778C29.5427 22.8295 30.4022 20.4181 30.5704 17.9111C30.7386 15.404 30.2089 12.8994 29.0402 10.6751C27.8715 8.45074 26.1095 6.59366 23.9495 5.30986C21.7896 4.02605 19.3162 3.36573 16.8038 3.40213C14.2914 3.43853 11.8382 4.17024 9.71638 5.51609C7.59455 6.86193 5.88703 8.76928 4.78328 11.0265C3.67952 13.2838 3.22268 15.8027 3.46344 18.3038C3.70419 20.8049 4.63313 23.1887 6.1472 25.194ZM17 18.7C15.1965 18.7 13.4669 17.9836 12.1917 16.7083C10.9164 15.4331 10.2 13.7035 10.2 11.9C10.2 10.0965 10.9164 8.36692 12.1917 7.09167C13.4669 5.81643 15.1965 5.1 17 5.1C18.8035 5.1 20.5331 5.81643 21.8083 7.09167C23.0836 8.36692 23.8 10.0965 23.8 11.9C23.8 13.7035 23.0836 15.4331 21.8083 16.7083C20.5331 17.9836 18.8035 18.7 17 18.7ZM17 15.3C17.9017 15.3 18.7665 14.9418 19.4042 14.3042C20.0418 13.6665 20.4 12.8017 20.4 11.9C20.4 10.9983 20.0418 10.1335 19.4042 9.49584C18.7665 8.85821 17.9017 8.5 17 8.5C16.0983 8.5 15.2335 8.85821 14.5958 9.49584C13.9582 10.1335 13.6 10.9983 13.6 11.9C13.6 12.8017 13.9582 13.6665 14.5958 14.3042C15.2335 14.9418 16.0983 15.3 17 15.3Z" fill="#0020C0"/>
</svg>
